<?xml version="1.0" encoding="UTF-8"?>
<svg width="58px" height="40px" viewBox="0 0 58 40" version="1.1" xmlns="http://www.w3.org/2000/svg" xmlns:xlink="http://www.w3.org/1999/xlink">
    <!-- Generator: Sketch 42 (36781) - http://www.bohemiancoding.com/sketch -->
    <title>logo</title>
    <desc>Created with Sketch.</desc>
    <defs></defs>
    <g id="Page-1" stroke="none" stroke-width="1" fill="none" fill-rule="evenodd">
        <g id="logo" fill="#FFFFFF">
            <polygon id="Fill-1" points="25.1449286 -7.14285714e-05 29.3523095 7.61897619 35.2235 7.61897619 35.2235 11.4287381 26.8706429 11.4287381 20.2244524 -7.14285714e-05 -7.14285714e-05 -7.14285714e-05 -7.14285714e-05 12.380881 5.69945238 12.380881 9.29802381 5.71421429 16.6492143 5.71421429 19.0863571 9.5237381 11.7489762 9.5237381 8.15016667 16.1904048 -7.14285714e-05 16.1904048 -7.14285714e-05 23.5713571 8.15016667 23.5713571 11.7489762 30.4763571 19.0863571 30.4763571 16.6492143 34.2856429 9.29802381 34.2856429 5.69945238 27.6189762 -7.14285714e-05 27.6189762 -7.14285714e-05 39.9999286 20.2244524 39.9999286 26.8706429 29.5237381 35.2235 29.5237381 35.2235 33.3332619 29.3525476 33.3332619 25.1446905 39.9999286 40.9373095 39.9999286 40.9373095 21.9049286 22.6056429 21.9049286 20.2530238 25.7144524 14.9851667 25.7144524 18.5985 20.0001667 14.9851667 14.2856429 20.2530238 14.2856429 22.5289762 18.0920714 40.9373095 18.0920714 40.9373095 -7.14285714e-05"></polygon>
            <polygon id="Fill-2" points="45.6994286 11.4562857 45.6994286 28.899619 57.1134762 37.3115238 57.1134762 3.16461905"></polygon>
        </g>
    </g>
</svg>